<svg xmlns="http://www.w3.org/2000/svg" xmlns:xlink="http://www.w3.org/1999/xlink" height="800" width="1200" viewBox="-28.879155 -13.673675 250.28601 82.04205"><defs><linearGradient spreadMethod="pad" gradientTransform="rotate(-90 177.7688 -22.5538) scale(10.79555)" gradientUnits="userSpaceOnUse" xlink:href="#a" id="c" y2="0" x2="1" y1="0" x1="0"/><linearGradient spreadMethod="pad" gradientTransform="rotate(-90 177.7688 -22.5538) scale(10.79555)" gradientUnits="userSpaceOnUse" id="a" y2="0" x2="1" y1="0" x1="0"><stop offset="0" stop-color="#f1cb00"/><stop offset="1" stop-color="#fff"/></linearGradient><linearGradient spreadMethod="pad" gradientTransform="matrix(0 10.7956 10.7956 0 200.3226 131.4654)" gradientUnits="userSpaceOnUse" xlink:href="#b" id="d" y2="0" x2="1" y1="0" x1="0"/><linearGradient spreadMethod="pad" gradientTransform="matrix(0 10.7956 10.7956 0 200.3226 131.4654)" gradientUnits="userSpaceOnUse" id="b" y2="0" x2="1" y1="0" x1="0"><stop offset="0" stop-color="#f1cb00"/><stop offset="1" stop-color="#fff"/></linearGradient></defs><path d="M186.692 143.32h.145c0 1.749.453 3.408 1.262 4.896h2.267c-.641-1.491-.999-3.15-.999-4.896h.144c0 1.749.364 3.408 1.012 4.896h3.625c-.397-1.491-.619-3.15-.619-4.896h.145c0 1.749.223 3.408.622 4.896h3.159c-.179-1.483-.277-3.139-.277-4.896h.144c0 1.72.098 3.382.283 4.896h2.646v-4.896h.144v4.896h2.645c.185-1.514.283-3.176.283-4.896h.144c0 1.757-.099 3.413-.276 4.896h3.158c.399-1.488.623-3.147.623-4.896h.144c0 1.746-.222 3.405-.619 4.896h3.625c.649-1.488 1.012-3.147 1.012-4.896h.144c0 1.746-.359 3.405-.998 4.896h2.266c.809-1.488 1.263-3.147 1.263-4.896h.143c0 6.475-6.114 11.744-13.629 11.744-7.516 0-13.631-5.269-13.631-11.744m13.703 11.596c.625-.061 1.239-.916 1.742-2.398h-1.742zm-.144 0v-2.398h-1.743c.504 1.482 1.118 2.337 1.743 2.398m.646-.04c1.299-.195 2.493-1.045 3.472-2.358h-2.07c-.397 1.182-.875 2.007-1.402 2.358m-1.149 0c-.528-.351-1.006-1.176-1.402-2.358h-2.069c.978 1.313 2.172 2.163 3.471 2.358m-.781-.047c-1.066-.376-2.042-1.183-2.863-2.311h-2.36c1.485 1.225 3.273 2.047 5.223 2.311m2.711-.001c1.95-.263 3.738-1.085 5.224-2.31h-2.361c-.822 1.128-1.797 1.935-2.863 2.31m1.513-.174c1.974-.369 3.788-1.111 5.337-2.136h-1.402c-1.147.977-2.482 1.713-3.935 2.136m-5.736 0c-1.454-.423-2.789-1.159-3.936-2.136h-1.402c1.549 1.025 3.363 1.767 5.338 2.136m9.837-2.28h1.45c1.564-1.078 2.843-2.448 3.725-4.014h-2.25c-.693 1.557-1.697 2.926-2.925 4.014m-2.647 0h2.428c1.253-1.078 2.279-2.448 2.985-4.014h-3.601c-.429 1.557-1.051 2.926-1.812 4.014m-2.298 0h2.127c.771-1.078 1.402-2.448 1.837-4.014h-3.138c-.194 1.564-.477 2.93-.826 4.014m-1.952 0h1.79c.084-.256.164-.529.24-.819.25-.945.449-2.024.597-3.195h-2.627zm-2.175-.819c.076.29.156.563.24.819h1.791v-4.014h-2.628c.147 1.171.348 2.25.597 3.195m-2.049.819h2.128c-.349-1.084-.633-2.45-.827-4.014h-3.138c.435 1.566 1.067 2.936 1.837 4.014m-2.599 0H196c-.76-1.088-1.383-2.457-1.812-4.014h-3.601c.706 1.566 1.732 2.936 2.985 4.014m-1.67 0h1.45c-1.227-1.088-2.23-2.457-2.923-4.014h-2.251c.882 1.566 2.162 2.936 3.724 4.014" fill="url(#c)" transform="matrix(2.3327 0 0 -2.3327 -371.028 361.7172)"/><path d="M213.809 143.36c0-1.749-.454-3.408-1.263-4.897h-2.266c.639 1.491.998 3.15.998 4.897h-.144c0-1.749-.363-3.408-1.012-4.897h-3.625c.397 1.491.619 3.15.619 4.897h-.144c0-1.749-.224-3.408-.623-4.897h-3.158c.177 1.484.276 3.139.276 4.897h-.144c0-1.72-.098-3.382-.283-4.897h-2.645v4.897h-.144v-4.897h-2.646c-.185 1.515-.283 3.177-.283 4.897h-.144c0-1.758.098-3.413.277-4.897h-3.159c-.399 1.489-.622 3.148-.622 4.897h-.145c0-1.747.222-3.406.619-4.897h-3.625c-.648 1.489-1.012 3.148-1.012 4.897h-.144c0-1.747.358-3.406.999-4.897h-2.267c-.809 1.489-1.262 3.148-1.262 4.897h-.145c0-6.475 6.115-11.743 13.631-11.743 7.515 0 13.629 5.268 13.629 11.743zm-3.592-5.041h2.25c-.882-1.565-2.161-2.935-3.725-4.013h-1.45c1.228 1.088 2.232 2.457 2.925 4.013m-3.76 0h3.601c-.706-1.565-1.732-2.935-2.985-4.013h-2.428c.761 1.088 1.383 2.457 1.812 4.013m-3.284 0h3.138c-.435-1.565-1.066-2.935-1.837-4.013h-2.127c.349 1.085.632 2.45.826 4.013m-2.778 0h2.627c-.148-1.169-.347-2.249-.597-3.193-.076-.291-.156-.563-.24-.82h-1.79zm-2.175-3.193c-.249.944-.45 2.024-.597 3.193h2.628v-4.013h-1.791c-.084.257-.164.529-.24.82m-3.886 3.193h3.138c.194-1.563.478-2.928.827-4.013h-2.128c-.77 1.078-1.402 2.448-1.837 4.013m-3.747 0h3.601c.429-1.556 1.052-2.925 1.812-4.013h-2.428c-1.253 1.078-2.279 2.448-2.985 4.013m-2.409 0h2.251c.693-1.556 1.696-2.925 2.923-4.013h-1.45c-1.562 1.078-2.842 2.448-3.724 4.013m18.948-4.157h1.402c-1.549-1.025-3.363-1.767-5.337-2.137 1.453.424 2.788 1.16 3.935 2.137m-2.585 0h2.361c-1.486-1.225-3.274-2.047-5.224-2.31 1.066.374 2.041 1.181 2.863 2.31m-2.242 0h2.07c-.979-1.313-2.173-2.163-3.472-2.357.527.349 1.005 1.175 1.402 2.357m-1.904 0h1.742c-.503-1.481-1.117-2.336-1.742-2.398zm-1.887 0h1.743v-2.398c-.625.062-1.239.917-1.743 2.398m-2.231 0h2.069c.396-1.182.874-2.008 1.402-2.357-1.299.194-2.493 1.044-3.471 2.357m-2.533 0h2.36c.821-1.129 1.797-1.936 2.863-2.31-1.95.263-3.738 1.085-5.223 2.31m-1.627 0h1.402c1.147-.977 2.482-1.713 3.936-2.137-1.975.37-3.789 1.112-5.338 2.137" fill="url(#d)" transform="matrix(2.3327 0 0 -2.3327 -371.028 361.7172)"/><path d="M127.9505 19.97a2.2397 2.2397 0 01-.4619-1.1477c-.1283-1.255.42-2.4797 1.416-3.2471a4.4925 4.4925 0 00-.9844.2146c-.6019.7348-.9121 1.6842-.8141 2.6523.063.6205.3872 1.1686.8444 1.5279m25.9062 12.3294c-.1283-.1586-.2472-.3335-.3382-.5318-.9214-2.0458-.3942-4.4391.5038-6.4196.5482-1.2177 1.255-2.2954 2.1485-3.2938.5272-.5901 1.1057-1.0963 1.8125-1.4066.0513-.1213.098-.2472.1703-.3685.0326-.056.4502-.343-.1213-.182-.9145.2613-1.612.8678-2.2418 1.577-.891 1.003-1.5955 2.0737-2.1484 3.2937-.898 1.9804-1.423 4.3715-.4992 6.4196.1656.3755.4176.6764.7138.912m6.2381-11.9459c-.7768.0816-1.192 1.36-.9494 2.1647.1586.5202.4526.989.8678 1.3133a2.7607 2.7607 0 01-.4852-.933c-.2473-.8025.1726-2.0808.947-2.1648.4503-.0513.8562.1026 1.2037.3779-.4129-.5109-.954-.8281-1.5839-.7581m-14.1979.0737c.5551.7161 1.332 1.8055 1.1313 4.8823.1423-.021.273-.0513.4036-.0746.098-2.7293-.6298-3.7463-1.1524-4.4251-.1773-.2287-.3732-.4293-.5808-.6112.0676.0746.1353.1493.1983.2286m-16.2823-9.4392c-5.4468.1096-9.7926 9.214-9.5104 9.1721a9.4583 9.4583 0 00.5272-.1003c.8188-1.8662 4.6794-8.596 9.3611-8.6893 1.1827-.0257 2.0971.3452 2.741.891-.6392-.7487-1.682-1.3016-3.1189-1.2736m34.2492 12.5233c.0326.2916.077.238.2239.1237.035-.0303.0676-.056.1026-.084-.2076-1.3366-.7674-2.615-1.7541-3.4547.8257.9027 1.29 2.146 1.4276 3.415m17.8808 8.6518c-.2356-.294-.4082-.6438-.5016-1.0264-.2262-.919.028-1.8662.6555-2.5683-.2612 0-.5038.0397-.7301.112-.3616.6228-.4829 1.3576-.308 2.0737.1447.5715.455 1.0567.8842 1.409m-21.811-6.766c-.3895-.182-.7558-.4152-1.0777-.6881.3966.4502.9028.8094 1.458 1.0707.5062.2356 1.122.3149 1.6608.3335.042-.1306.0887-.2589.1283-.3849-.6228.0257-1.4929-.014-2.1694-.3312m28.6724-9.069c-.7185.4758-1.4743.975-1.7939 1.8194-.3592.9565-.2706 1.9222-.0793 2.937.7138 3.7346 2.7083 6.9467 2.1228 10.812 0 .0116.147.0793.189.0536.0839-.0536.1655-.1073.2449-.1586.3592-3.653-1.4953-6.7485-2.1765-10.3269-.1936-1.017-.2822-1.978.077-2.9368.3173-.8445 1.0777-1.3437 1.7939-1.8195m-17.8689.6769c1.4742 2.0341 3.3544 4.3505 2.4586 7.0144-.842 2.5147-2.44 4.6001-3.2424 7.131-.1493.4736.084.8422.4408 1.0521-.1026-.189-.14-.4128-.0606-.6741.8001-2.531 2.398-4.6164 3.2401-7.1264.8958-2.664-.9797-4.9826-2.4563-7.0144.4735-1.1407 1.5629-2.3654.94-3.6064-.098-.196-.2286-.3149-.3778-.3802.6181 1.2363-.469 2.4657-.9425 3.604M119.8945 31.703c-.0583-.0653-.119-.1283-.175-.1983-2.2043-2.8366-1.1616-6.4686.098-9.4614 1.437-.1167 3.506-.8654 4.9127-1.5116-.0373-.1773-.0606-.3546-.063-.5295-1.3973.6741-3.6833 1.5349-5.2299 1.6585-1.2596 2.9952-2.3023 6.6272-.0933 9.4661a4.038 4.038 0 00.5505.5762" fill="#f1cb00"/><path d="M170.6102 19.1386c.021-.0303.0326-.0466.049-.063-.077-.105-.1494-.2146-.2357-.3172-.091-.105-.0676-.1796-.1936 0-1.8685 2.657-3.6623 5.0386-6.4079 6.5689-.4199 3.6483-2.2464 7.0844-4.9406 9.6387-1.486 1.4089-3.4478 2.216-5.4795 2.0434-.9821-.0816-1.8709-.4829-2.5847-1.1244.7628.8655 1.8009 1.4067 2.9625 1.5046 2.0365.1726 3.996-.6368 5.4842-2.0434 2.6943-2.5497 4.5184-5.988 4.9383-9.6387 2.748-1.5303 4.5395-3.9096 6.408-6.5689m-20.6897 6.9307c.1797-.4899.1167-.4082-.07-.315-.9307.4643-2.062.8678-3.0651 1.0474-1.4183 4.4392-4.0589 9.5548-9.2212 10.187-1.5582.1842-2.7129-.2497-3.5573-.9938.8677.968 2.132 1.591 3.9376 1.3716 5.1622-.6275 7.8028-5.743 9.2211-10.1845.8678-.1563 1.8219-.4806 2.664-.8678l.091-.245m35.2878-5.8781c-.0117-.154-.0163-.3079-.021-.4619-.0047-.2029.084-.4432-.1773-.1306-.6018.7162-1.171 1.3553-1.7588 2.0948-3.569 4.4834-6.1304 9.753-9.9676 13.427-1.4207 1.3576-3.3428 2.293-5.328 1.8078-.4875-.1213-.9027-.3522-1.2526-.6555.4106.4876.9518.8701 1.6306 1.038 1.9874.483 3.9096-.4525 5.3279-1.81 3.8396-3.674 6.4009-8.9437 9.9699-13.427.5295-.665 1.0404-1.2504 1.5769-1.8826m6.7758 11.0092c-.21.4735-.5202.898-.7418 1.3716-1.0124.098-1.9641.4712-2.7456 1.1104-1.3506 1.108-1.7145 2.7922-4.2665 3.3334-1.7519.3709-3.0232-.1026-3.9166-.898.898 1.017 2.279 1.7051 4.2945 1.2759 2.552-.5412 2.9182-2.2207 4.2712-3.3288.7768-.6415 1.7332-1.0124 2.7432-1.115.2893-.6065.7232-1.1453.9051-1.8102-.1843.007-.3639.0304-.5435.0607m-60.0455-1.206c-.2076.0186-5.5868 7.9241-13.14 6.9584-1.2364-.161-2.2814-.7021-3.1539-1.5092.9401 1.0217 2.1111 1.7028 3.5364 1.8894 6.4592.8258 11.3299-4.8426 12.7295-6.5035-.0116-.3313 0-.6182.028-.8351m11.6723-8.8855c.3336-.231.8795-.0467 1.3204.301-.4456-.5693-1.2597-.9845-1.7006-.6789-1.4952 1.031-.7488 3.0582.2193 3.8326.0023.0047.007.007.0093.0094-.7558-.9285-1.1453-2.566.1517-3.4641m-6.5328 11.0832c-.3755-.462-.6251-1.0475-.7231-1.6563-.3639-2.251.2893-4.3901 1.3833-6.3403.8957-1.5955 2.209-3.2937 3.9959-3.8443.0793-.0956.168-.182.2683-.2636.3872-.3242.0886-.2775.0746-.2775-2.1624.2636-3.7043 2.1997-4.719 4.0052-1.094 1.9501-1.7449 4.0892-1.381 6.3403.1283.7908.5109 1.5489 1.101 2.0364m7.6485-5.493c-.9774-.1773-1.7565-.6858-2.4447-1.318.042.0513.084.1026.133.147.6835.6764 1.4533 1.2433 2.419 1.4906a4.6713 4.6713 0 00.0653-.2426c.007-.042-.1073-.0654-.1726-.077m-29.9521-4.7522c-.8607-.1423-1.8895-.1423-2.7619-.5552-.1796-.084-.6368-.2822-1.059-.6321.4805.5925 1.2013.9027 1.4392 1.0124.7045.3359 1.5163.3988 2.2581.4852.0443-.1027.084-.2077.1236-.3103m-2.2072-3.0477c-.021.5132.2216.8795.5879 1.136-.1377-.2052-.2193-.4571-.2076-.7557.0233-.6112.6741-.9378 1.255-.9074-.0957-.1493-.238-.2753-.4036-.3803-.5762-.0186-1.206.3033-1.2317.9074m18.0649 3.606c-2.0271 1.2013-3.702.8607-4.7564-.0444 1.0008 1.1687 2.8436 1.7845 5.139.4222 3.5363-2.097 6.0207-7.9428 2.8972-11.2692a4.6035 4.6035 0 00-.329-.315c3.0326 3.3381.567 9.1186-2.9508 11.2063" fill="#f1cb00"/><path d="M155.3266 21.2103c.6298-.7115 1.3296-1.3203 2.2417-1.5793.5692-.1632.1516.1283.1213.182-.4689.8118-.5855 1.6819-.4106 2.58.231 1.1966 1.129 2.041 2.1904 2.5403.6765.3172 1.5466.3545 2.1694.3289-.9634 3.0208-2.9532 6.8231-6.4172 7.1077-1.0357.0816-2.0831-.4269-2.545-1.4486-.9237-2.0504-.3965-4.4391.5015-6.4196.5506-1.2177 1.255-2.2884 2.1485-3.2914m3.3567.8397c-.245-.8024.1726-2.0807.947-2.1624 1.6096-.1772 2.699 2.1764 2.2745 3.9073-.476.1493-.9354.0956-1.43-.0023-.926-.189-1.5349-.8935-1.7915-1.7426m-15.9136-1.7868c.5155-.3569 1.5512.2753 1.8941.9914.5225 1.0824.5085 2.2604.2613 3.443-.0304.14-.0607.1424-.2053.1354-.6508-.0187-1.2107-.3103-1.7355-.7348-.9681-.7745-1.7122-2.7993-.2146-3.835m-5.8761 3.0862c1.0124-1.8055 2.5566-3.744 4.7167-4.0053.0163 0 .3172-.0466-.0746.2776-.7558.6228-.9098 1.563-.9355 2.4353-.0233.9681.2473 1.9175.9704 2.6267.7488.737 1.5956 1.353 2.6896 1.5489.0654.014.1797.0373.1727.0793-.2706 1.3833-1.227 2.671-2.1438 3.8186-1.122 1.402-2.6756 2.356-4.5044 2.1158-1.2667-.1633-2.0715-1.325-2.2697-2.5567-.3663-2.251.2846-4.3901 1.3786-6.3402m-10.2499-5.3746c-.1283-1.2526.4222-2.4773 1.416-3.247-3.1002.3335-3.7533 3.212-3.8257 3.2517-1.2876.7325-3.0931 1.4883-4.5954 1.7169-.2799.0396 4.0613-9.0649 9.5104-9.1745 2.398-.0467 3.7067 1.5185 3.8653 2.9252.2916 2.552-1.031 5.3302-3.4454 6.3519-1.353.5762-2.7829-.4316-2.9252-1.8242m-7.7655 12.6829c-2.2068-2.8342-1.1664-6.4662.0933-9.4614 1.5489-.1237 3.835-.9844 5.2346-1.6609.0116 2.0691 2.4726 4.579 5.9647 2.503 3.5363-2.0994 6.0183-7.9452 2.8948-11.2716-1.8568-1.9805-4.7937-1.8452-7.18-1.0614-5.0853 1.6679-8.5237 5.939-11.0943 10.3875-1.08.0117-2.741-.3406-2.6873-1.6585.0234-.6135.6695-.9378 1.255-.9098-.6438-.9844-3.1258-1.1313-3.5993.4572-.5739 1.9268 1.3693 2.748 1.7868 2.9439.8748.4129 1.9035.4152 2.762.5552-1.612 3.9516-2.8156 8.9902.1422 12.7132.996 1.2456 2.2814 2.0854 3.884 2.2907 7.5509.9657 12.9324-6.9375 13.1424-6.9561-.2263 1.7448.6181 7.5999 5.6241 6.9934 5.16-.6298 7.8005-5.7454 9.2211-10.1869 1.0008-.1796 2.1345-.5808 3.0629-1.0474.1866-.0933.252-.1726.07.315-1.0334 2.7829-1.647 5.9577-.0444 8.6822.7722 1.3064 2.0505 2.1345 3.5247 2.2604 2.0365.1726 3.996-.6368 5.4819-2.0458 2.6966-2.552 4.5207-5.988 4.9406-9.6387 2.7456-1.5302 4.5395-3.9096 6.4056-6.5665.126-.182.1027-.1073.1936 0 .5342.6088.8048 1.3063.9681 2.1064.2006.9611-.091 1.8079-.5972 2.6243-1.416 2.3047-2.8785 4.2222-4.3411 6.5176-.6625 1.0427-1.045 2.132-1.038 3.3194.007 1.5746.8934 3.1958 2.5426 3.604 1.985.4805 3.9096-.4549 5.3278-1.8102 3.835-3.6763 6.3986-8.9435 9.9677-13.4293.5878-.7371 1.1546-1.3763 1.7588-2.0948.259-.3125.1726-.0723.1773.1307.035 2.0504.5482 4.0029.8118 6.0487.168 1.2923.3709 2.545.259 3.8466-.147 1.6469-1.3904 3.366-3.2355 3.1048-1.0824-.154-1.9012-.926-2.1625-1.9758-.2262-.9144.0327-1.8615.6579-2.566-1.9618-.0186-2.9346 2.2557-2.9789 3.9306-.0443 1.6772 1.395 5.8084 5.6895 4.8987 2.5543-.5435 2.9182-2.2254 4.2688-3.3334.7791-.6392 1.7355-1.0124 2.7456-1.1104.2892-.6112.7231-1.1477.9027-1.8125-1.1103.035-2.1344.5435-3.1025 1.1873-.042.028-.1889-.0373-.1866-.0513.5832-3.8676-1.4113-7.0727-2.125-10.8097-.1913-1.0194-.28-1.9828.0793-2.9369.3195-.8467 1.08-1.3483 1.7938-1.8195-.2006-.2985-.6625-.905-.7325-.8724-4.474 2.2557-7.8052 8.7663-11.1293 12.8625-1.4486 1.7845-2.6592 3.9143-5.0363 4.4228-.7254.1563-1.6398-.371-1.3762-1.213.8024-2.531 2.398-4.614 3.2447-7.1287.8958-2.664-.9867-4.9803-2.461-7.0145.4736-1.1383 1.5653-2.3653.9401-3.6063-.4059-.8071-1.3833-.3709-1.8381.2123-.6672.863-.7558 1.9268-.5319 2.9415-.7581 1.5373-1.7962 2.8342-2.8855 4.2129-.7908 1.0007-1.7076 1.7075-2.713 2.4866-.147.1166-.1913.168-.2216-.1213-.21-1.9291-1.1593-3.8186-3.0115-4.509-3.926-1.4604-7.7585 1.4019-9.7133 4.656-1.29.765-2.3047 1.3646-4.1103 1.6515.1983-3.0768-.5785-4.1662-1.1313-4.8823-1.5956-2.0691-4.607-2.2207-6.7322-1.2713-3.583 1.5955-5.7944 5.2229-6.6482 8.1994-1.9897 2.2067-4.453 4.0216-7.313 4.9826-2.013.6765-4.446.6042-5.862-1.2153" fill="#ed1c24"/><path d="M48.893 33.1936h.6112c0-2.7946-.0046-15.0762-.0046-15.0762l-.6112-.0047c.0023 2.72.0047 14.605.0047 15.0809m7.0041.5876v2.9835H45.589v.5319h10.9147v-3.5154zm2.3442-6.8649c.3405.3546.7301.6718 1.164.9237 1.4136.8795 3.0488 1.2387 4.488 1.5536 1.213.266 2.1625.4992 2.8157.8724-.5669-.758-1.745-1.066-3.4618-1.4439-1.444-.3172-3.0791-.6718-4.4904-1.5512-.182-.1097-.35-.2333-.5155-.3546" fill="#f1cb00"/><path d="M65.6003 36.765H57.513v.5318h8.6963c3.0138 0 5.4678-2.447 5.4678-5.4632 0-1.7332-.8304-3.3194-2.1484-4.3435.9564 1.003 1.5372 2.349 1.5372 3.793 0 3.0208-2.454 5.4818-5.4655 5.4818m5.3077-18.6439h-.6088v2.9953l-8.0525.0046c-.9167 0-1.6632.7488-1.6655 1.7052-.077.5132.259.9331.8048 1.29-.1633-.2193-.2403-.4665-.1936-.7325 0-.9634.7464-1.7168 1.6632-1.7168h8.0524zm31.6359 9.983c-1.9129-3.2564-5.8668-9.9862-5.8668-9.9862l-.4642.0024c1.1803 2.006 5.2952 9.0042 6.331 10.7607zm3.983-9.9887v18.6499h-3.5457c.2053.3382.322.5318.322.5318h3.8372V18.1153zM95.9944 24.945c-.0023 2.1157-.0093 11.8197-.0093 11.8197h-3.3054v.5319h3.9189s.0047-8.5167.0047-11.3066zM12.552 28.809c-.8304-2.7782-.9447-3.1421-3.2005-10.693H8.787c.6345 2.111 2.9112 9.7296 3.4827 11.6378zm-6.0897-3.9884c-.3593 1.7962-2.391 11.9434-2.391 11.9434H.7332l-.119.5342h4.0636s1.6188-8.0618 2.223-11.0687c-.196-.6275-.3499-1.1243-.4385-1.409m14.9085-6.7038h-.6089l3.9143 18.6475h-3.555c.07.3266.1143.5319.1143.5319h4.1732zm-3.1217 6.7942a65023.808 65023.808 0 00-3.6833 11.8547h-4.0052c.0536.1587.1843.5319.1843.5319h4.4298s2.4213-7.7702 3.3777-10.8564c-.133-.6835-.245-1.227-.3033-1.5302m23.2057-4.3787c-.259-.259-.5318-.4969-.8141-.7232 1.9268 1.8312 3.1421 4.4415 3.1421 7.3387 0 5.5261-4.397 10.019-9.7996 10.019-2.3024 0-4.4181-.8189-6.0907-2.1835 1.7542 1.6866 4.1056 2.7293 6.6995 2.734 2.58 0 5.0153-1.0148 6.8558-2.86 1.8988-1.9011 2.9439-4.4437 2.9439-7.1613 0-2.7153-1.038-5.258-2.9369-7.1637" fill="#f1cb00"/><path d="M34.5967 21.267c1.227 0 2.405.4268 3.394 1.1943-.0233-.0187-.042-.0397-.063-.063-1.08-1.0824-2.4772-1.6795-3.9422-1.6795-1.4626 0-2.8669.5948-3.9469 1.6795-1.2083 1.2107-1.9035 2.9415-1.9035 4.74 0 2.1508.9658 4.052 2.4447 5.2206-1.164-1.213-1.8335-2.9065-1.8312-4.6677 0-3.5434 2.622-6.4242 5.848-6.4242m54.0886-.7348c-.259-.259-.5319-.4969-.8118-.7232 1.9268 1.8312 3.1421 4.4415 3.1421 7.3387 0 5.5261-4.3971 10.019-9.7996 10.019-2.3 0-4.4205-.8189-6.0884-2.1835 1.7495 1.6866 4.1056 2.7293 6.6972 2.734 2.5776 0 5.0083-1.0148 6.8535-2.86 1.9034-1.9011 2.9485-4.4437 2.9485-7.1613 0-2.7153-1.0404-5.258-2.9415-7.1637" fill="#f1cb00"/><path d="M81.8317 21.267c1.22 0 2.4003.4268 3.3894 1.1943-.0233-.0187-.0397-.0397-.063-.063-1.0777-1.0824-2.4773-1.6795-3.94-1.6795-1.4625 0-2.8668.5948-3.9468 1.6795-1.2107 1.2107-1.9058 2.9415-1.9058 4.74-.0047 2.1508.9657 4.052 2.447 5.2206-1.1664-1.213-1.8359-2.9065-1.8335-4.6677 0-3.5434 2.6219-6.4242 5.8527-6.4242" fill="#f1cb00"/><path d="M44.9074 36.1538l.0047-18.6103 3.3498-.007.0046 15.657 6.9981.0024v2.9602zm20.3416 0l-8.4187.0023v-2.9602l7.9102-.0047c1.2153 0 2.2044-.982 2.2044-2.2044-.0793-3.1724-4.74-2.1787-8.0408-4.2781-1.4393-.8538-2.4027-2.4377-2.4027-4.2385 0-2.7223 2.1997-4.9337 4.9127-4.9337h8.2554v2.9882l-7.7749.0023c-1.0707 0-1.9408.8771-1.9408 1.9455-.3476 2.3304 5.6591 2.9322 6.7298 3.492 2.1694.6275 3.7603 2.629 3.7557 5.0013 0 2.8716-2.328 5.188-5.1903 5.188m40.6489 0V17.5365h-3.3638l.0094 12.2653-7.2127-12.2653h-3.3241l-.0117 18.6173h3.3614l.0117-12.2887 7.138 12.2887zM0 36.1561h3.4897l2.552-12.6875L9.9886 36.156h4.0216l3.9492-12.6829 2.5403 12.6806h3.4897L20.066 17.5365h-4.1336l-3.9352 13.1238-3.919-13.1168H3.933zm80.8806-2.6126c3.3871.007 6.1304-2.9952 6.1327-6.6949.0023-3.702-2.741-6.7041-6.128-6.7041s-6.1326 2.9998-6.1326 6.6995c0 3.7043 2.7432 6.6995 6.128 6.6995m-9.5151-6.6995c.0046-5.3816 4.2595-9.746 9.522-9.739 5.2556 0 9.5198 4.3644 9.5128 9.7436 0 5.3816-4.2619 9.746-9.5198 9.7437-5.2578-.0047-9.5197-4.3691-9.515-9.7483M33.6337 33.53c3.3825.0046 6.1304-2.9976 6.1304-6.6996.0046-3.7043-2.741-6.7018-6.1304-6.7088-3.3847 0-6.1256 3.0022-6.1256 6.7042-.0023 3.6996 2.7409 6.7041 6.1256 6.7041m-9.5197-6.7041c.0023-5.3839 4.2688-9.7437 9.5267-9.7437 5.2556 0 9.5174 4.3668 9.5174 9.753-.0023 5.3792-4.2665 9.7413-9.5244 9.739-5.2602-.0023-9.5197-4.3691-9.5197-9.7483" fill="#0067ac"/></svg>