<?xml version="1.0" encoding="utf-8"?>
<!-- Generator: Adobe Illustrator 16.0.5, SVG Export Plug-In . SVG Version: 6.00 Build 0)  -->
<!DOCTYPE svg PUBLIC "-//W3C//DTD SVG 1.1//EN" "http://www.w3.org/Graphics/SVG/1.1/DTD/svg11.dtd">
<svg version="1.1" id="Layer_1" xmlns="http://www.w3.org/2000/svg" xmlns:xlink="http://www.w3.org/1999/xlink" x="0px" y="0px"
	 width="92px" height="32.752px" viewBox="0 0 92 32.752" enable-background="new 0 0 92 32.752" xml:space="preserve">
<rect y="23.755" fill="#D23C57" width="92" height="8.997"/>
<polygon points="6.923,30.554 5.905,30.554 5.905,27.514 4.595,29.503 4.568,29.503 3.271,27.533 3.271,30.554 2.267,30.554 
	2.267,25.897 3.371,25.897 4.595,27.866 5.818,25.897 6.923,25.897 "/>
<g>
	<path d="M13.117,28.226c0,1.323-1.044,2.408-2.481,2.408c-1.437,0-2.468-1.072-2.468-2.396v-0.013c0-1.324,1.044-2.408,2.48-2.408
		c1.438,0,2.468,1.07,2.468,2.395V28.226z"/>
	<polygon points="16.449,30.587 15.544,30.587 13.662,25.897 14.793,25.897 16.01,29.177 17.228,25.897 18.332,25.897 	"/>
	<rect x="19.43" y="25.897" width="1.025" height="4.656"/>
	<polygon points="25.497,30.554 21.952,30.554 21.952,25.897 25.464,25.897 25.464,26.809 22.97,26.809 22.97,27.753 25.165,27.753 
		25.165,28.665 22.97,28.665 22.97,29.642 25.497,29.642 	"/>
	<path d="M30.107,29.177c0,0.924-0.705,1.443-1.709,1.443c-0.706,0-1.417-0.246-1.976-0.745l0.605-0.726
		c0.419,0.346,0.858,0.566,1.39,0.566c0.419,0,0.672-0.167,0.672-0.439v-0.014c0-0.26-0.16-0.393-0.938-0.592
		c-0.938-0.239-1.543-0.499-1.543-1.424v-0.014c0-0.844,0.679-1.402,1.63-1.402c0.679,0,1.257,0.213,1.729,0.592l-0.532,0.771
		c-0.412-0.286-0.818-0.459-1.21-0.459c-0.392,0-0.599,0.18-0.599,0.406v0.013c0,0.306,0.2,0.405,1.004,0.612
		c0.944,0.246,1.477,0.585,1.477,1.396V29.177z"/>
	<polygon points="37.187,26.841 35.77,26.841 35.77,30.554 34.745,30.554 34.745,26.841 33.328,26.841 33.328,25.897 37.187,25.897 
			"/>
	<polygon points="42.243,30.554 41.218,30.554 41.218,28.685 39.329,28.685 39.329,30.554 38.305,30.554 38.305,25.897 
		39.329,25.897 39.329,27.739 41.218,27.739 41.218,25.897 42.243,25.897 	"/>
	<polygon points="47.16,30.554 46.734,29.509 44.765,29.509 44.339,30.554 43.295,30.554 45.29,25.864 46.234,25.864 48.23,30.554 	
		"/>
	<polygon points="52.209,26.841 50.792,26.841 50.792,30.554 49.768,30.554 49.768,26.841 48.35,26.841 48.35,25.897 52.209,25.897 
			"/>
	<polygon points="60.312,30.554 59.295,30.554 59.295,27.514 57.984,29.503 57.957,29.503 56.66,27.533 56.66,30.554 55.656,30.554 
		55.656,25.897 56.76,25.897 57.984,27.866 59.208,25.897 60.312,25.897 	"/>
	<polygon points="65.229,30.554 64.803,29.509 62.834,29.509 62.408,30.554 61.363,30.554 63.359,25.864 64.304,25.864 
		66.299,30.554 	"/>
	<polygon points="70.277,26.841 68.861,26.841 68.861,30.554 67.836,30.554 67.836,26.841 66.42,26.841 66.42,25.897 70.277,25.897 
			"/>
	<polygon points="74.922,26.841 73.505,26.841 73.505,30.554 72.48,30.554 72.48,26.841 71.063,26.841 71.063,25.897 74.922,25.897 
			"/>
	<polygon points="79.586,30.554 76.039,30.554 76.039,25.897 79.553,25.897 79.553,26.809 77.058,26.809 77.058,27.753 
		79.253,27.753 79.253,28.665 77.058,28.665 77.058,29.642 79.586,29.642 	"/>
	<path d="M83.657,30.554l-0.998-1.49h-0.805v1.49H80.83v-4.656h2.129c1.098,0,1.756,0.578,1.756,1.536v0.013
		c0,0.752-0.406,1.225-0.998,1.444l1.138,1.663H83.657z"/>
	<polygon fill="#D23C57" points="45.131,28.604 46.367,28.604 45.749,27.095 	"/>
	<polygon fill="#D23C57" points="63.199,28.604 64.437,28.604 63.818,27.095 	"/>
	<path fill="#D23C57" d="M10.636,26.762c-0.825,0-1.397,0.651-1.397,1.45v0.014c0,0.798,0.585,1.463,1.41,1.463
		s1.397-0.652,1.397-1.449v-0.014C12.046,27.427,11.46,26.762,10.636,26.762"/>
	<path fill="#D23C57" d="M82.872,26.821h-1.018v1.338h1.038c0.498,0,0.785-0.267,0.785-0.659v-0.013
		C83.678,27.048,83.371,26.821,82.872,26.821"/>
	<path fill="#FFFFFF" d="M0,17.124V0h5.854c5.34,0,8.78,3.723,8.78,8.574c0,4.878-3.44,8.55-8.78,8.55H0z M12.426,8.574
		c0-3.696-2.336-6.674-6.572-6.674H2.131v13.324h3.723C10.013,15.224,12.426,12.246,12.426,8.574"/>
	<path fill="#FFFFFF" d="M16.922,1.669c0-0.719,0.591-1.31,1.31-1.31c0.718,0,1.283,0.59,1.283,1.31
		c0,0.719-0.565,1.283-1.283,1.283C17.513,2.952,16.922,2.388,16.922,1.669 M17.256,4.724h1.925v12.4h-1.925V4.724z"/>
	<path fill="#FFFFFF" d="M22.365,20.281l0.975-1.386c1.027,1.206,2.259,1.668,4.031,1.668c2.054,0,4.005-1.001,4.005-3.619V15.07
		c-0.924,1.258-2.439,2.208-4.185,2.208c-3.235,0-5.52-2.414-5.52-6.419c0-3.979,2.259-6.444,5.52-6.444
		c1.668,0,3.183,0.822,4.185,2.182V4.724h1.925v12.221c0,3.928-2.901,5.211-5.93,5.211C25.292,22.155,23.854,21.745,22.365,20.281
		 M31.376,13.555V8.112c-0.693-1.053-2.183-1.977-3.697-1.977c-2.516,0-4.005,1.977-4.005,4.724c0,2.722,1.489,4.698,4.005,4.698
		C29.193,15.558,30.683,14.634,31.376,13.555"/>
	<path fill="#FFFFFF" d="M36.18,1.669c0-0.719,0.59-1.31,1.309-1.31c0.719,0,1.284,0.59,1.284,1.31c0,0.719-0.565,1.283-1.284,1.283
		C36.77,2.952,36.18,2.388,36.18,1.669 M36.513,4.724h1.925v12.4h-1.925V4.724z"/>
	<polygon fill="#FFFFFF" points="53.482,17.124 44.549,4.878 44.549,17.124 41.546,17.124 41.546,0 44.626,0 53.381,11.86 53.381,0 
		56.385,0 56.385,17.124 	"/>
	<path fill="#FFFFFF" d="M58.57,10.911c0-3.594,2.617-6.495,6.289-6.495c3.723,0,6.084,2.824,6.084,6.726v0.668h-9.55
		c0.206,1.848,1.591,3.414,3.928,3.414c1.232,0,2.645-0.488,3.542-1.386l1.233,1.771c-1.259,1.181-3.081,1.823-5.032,1.823
		C61.316,17.432,58.57,14.839,58.57,10.911 M64.834,6.624c-2.285,0-3.363,1.771-3.466,3.26h6.982
		C68.273,8.421,67.272,6.624,64.834,6.624"/>
	<polygon fill="#FFFFFF" points="80.83,17.124 77.621,12.554 74.387,17.124 71.357,17.124 75.926,10.757 71.64,4.724 74.669,4.724 
		77.595,8.908 80.548,4.724 83.576,4.724 79.289,10.757 83.859,17.124 	"/>
	<path fill="#FFFFFF" d="M86.301,14.223V7.06h-2.054V4.724h2.054V1.335h2.695v3.389h2.516V7.06h-2.516v6.495
		c0,0.848,0.411,1.489,1.181,1.489c0.515,0,0.976-0.23,1.182-0.462L92,16.636c-0.488,0.437-1.283,0.796-2.516,0.796
		C87.379,17.432,86.301,16.302,86.301,14.223"/>
	<polygon points="86.717,27.674 86.396,27.674 86.396,26.163 85.824,26.163 85.824,25.87 87.289,25.87 87.289,26.163 86.717,26.163 
			"/>
	<polygon points="88.626,27.23 88.615,27.23 88.051,26.386 88.051,27.674 87.739,27.674 87.739,25.87 88.077,25.87 88.626,26.723 
		89.175,25.87 89.513,25.87 89.513,27.674 89.195,27.674 89.195,26.38 	"/>
</g>
</svg>
