<?xml version="1.0" encoding="utf-8"?>
<!-- Generator: Adobe Illustrator 19.0.0, SVG Export Plug-In . SVG Version: 6.00 Build 0)  -->
<svg version="1.1" id="Layer_1" xmlns="http://www.w3.org/2000/svg" xmlns:xlink="http://www.w3.org/1999/xlink" x="0px" y="0px"
	 viewBox="0 0 130 50" style="enable-background:new 0 0 130 50;" xml:space="preserve">
<style type="text/css">
	.st0{fill:#8B0304;}
	.st1{fill:#ED1C24;}
	.st2{fill:#FCAF17;}
	.st3{fill:#FFFFFF;}
</style>
<g>
	<path class="st0" d="M38.9,21.6c0.8-0.6,1.7-1,2.7-1.3c-2-3.7-2.6-7.2-1.2-10c3.8-8,22-9.6,40.2-0.5c3.1,1.5,6.4,3.5,9,5.4
		c0.5-0.4,1-0.6,1.3-0.7c0.1,0,0.4-0.1,0.7-0.2c-3.2-2.2-7.1-4.5-10.7-6.3c-21.2-10.5-41.7-9.4-46-0.4c-1.8,3.9-0.4,9,3.6,14.4
		C38.6,21.8,38.7,21.7,38.9,21.6z"/>
</g>
<path class="st1" d="M121.7,26.8c-0.2,1.1-1,4.2-1.2,5.1c-0.2,0.9,0,1.6,0.3,2.2c0.2,0.3-0.1,0.8-1.2,0.8c-1.1,0-2-0.2-2.7-1
	c-0.7-0.8-0.7-1.7-0.7-2.2c0.1-0.5,0.6-3,0.9-4.1c0.2-1.1-0.4-1.4-1.1-1.5s-1.9,0.3-2.1,1.1c-0.2,0.8-1,3.8-1.2,4.6
	c-0.2,0.8-0.8,2.6-2.4,2.6c-0.2,0-1.5,0-2.3,0c-0.7,0-0.5-0.7-0.5-0.7l2.7-9.8c0.2-0.9,0.7-1,1.3-1.2c0.8-0.2,1.5-0.4,2.3-0.5
	c1.1-0.2,1,0.5,1,0.9c-0.1,0.4-0.2,0.9-0.3,1.5c2-2.4,4.3-3.3,6.1-2.2C122.4,23.3,121.9,25.6,121.7,26.8z M35.4,23.3
	c0.4,1.8-0.3,3.5-1.7,4.3c-1.4,0.8-3,1.2-6.1,1.9c0,1.7,1,2.3,2.4,2.3c1.3,0,2.8-0.8,3.5-1.4c0.7-0.6,0.9,0,0.7,0.8
	c-0.2,0.7-0.4,2.2-3.4,3.1c-3,1-5.2,0.1-5.9-0.2c-0.7-0.4-2.4-1.7-1.5-4.9c0.9-3.2,3-4.9,3-4.9c2.4-2.4,4.2-2.7,5.3-2.9
	C32.8,21.2,35,21.5,35.4,23.3z M32.1,24c0-0.4-0.3-0.8-1-0.7c-0.7,0.1-1.4,0.8-2.2,1.9c-0.8,1.2-1.1,2.4-1.1,2.4s1.4,0,2.9-0.9
	C31.9,26,32.2,24.4,32.1,24z M84.3,30.2c-1.7,2.8-3.8,4.2-7.3,4.6c-1.4,0.1-2.5-0.1-3.3-0.5c-1.2-0.6-1.8-2.1-1.9-3.2
	c-0.1-1,0.1-2.3,0.8-3.8c1.7-3.5,3.9-4.6,5.2-5.2c1.4-0.6,4.5-1.2,6.3,0.3C85.8,23.8,86,27.3,84.3,30.2z M81.2,24.3
	c-0.9-1.2-2.6,0.1-3.2,1.1c-0.5,0.7-1,1.6-1.3,3c-0.3,1.4-0.1,3,1.7,3.1c1.8,0,2.8-2.6,3-3.3C81.6,27.4,82.1,25.5,81.2,24.3z
	 M125,32.9L125,32.9c0,0.5-0.4,1-1,1c-0.5,0-1-0.4-1-1v0c0-0.5,0.4-1,1-1C124.6,32,125,32.4,125,32.9z M124.8,32.9
	c0-0.4-0.3-0.8-0.8-0.8c-0.4,0-0.8,0.4-0.8,0.8v0c0,0.4,0.3,0.8,0.8,0.8C124.5,33.7,124.8,33.3,124.8,32.9L124.8,32.9z M124.2,33
	l0.2,0.3h-0.2l-0.2-0.3h0h-0.2v0.3h-0.2v-0.9h0.4c0.1,0,0.2,0,0.3,0.1c0.1,0.1,0.1,0.1,0.1,0.2v0C124.5,32.9,124.4,33,124.2,33z
	 M124.2,32.7c0-0.1-0.1-0.1-0.2-0.1h-0.2v0.3h0.2C124.2,32.9,124.2,32.8,124.2,32.7L124.2,32.7z M99.8,29.5
	c-1.4,4.2-4.4,5.3-6.4,5.2c-2.4-0.1-3.2-1.2-3.8-1.7c-1,1.5-2.4,1.4-3.1,1.3c-0.5,0-1.1-0.2-0.9-0.7c0.3-0.8,3.2-12.5,4.2-16.6
	c0.2-0.9,1-1.2,1.5-1.3c0.6-0.2,2-0.7,3-0.5c0.7,0.2,0.7,0.6,0.6,1c-0.6,1.6-1.9,5-2.6,6.7c0.2-0.3,2.1-2.3,4.7-1.4
	C99.6,22.5,101.1,25.5,99.8,29.5z M95.4,24.5c-1.1-1.4-2.8-0.1-3.3,0.9c-0.4,0.9-1.1,3.2-1.2,4.1c-0.1,0.9,0.2,2.2,1.2,2.5
	c1,0.3,2.1,0,3.1-1.8C96.2,28.4,96.5,25.9,95.4,24.5z M107,22.4c-0.8,0.2-1.8,0.3-2.6,0.5c-0.6,0.2-1,0.3-1.2,1.2l-2.1,7.6
	c-0.4,1.5,0.8,2.6,1.4,2.6c0.6,0,0.6,0,1.6,0c0.6,0,0.9-0.3,1-0.7c0.4-1.5,2.8-10.3,2.8-10.3C108,22.9,108,22.2,107,22.4z
	 M106.6,20.6c1.3,0,2.3-0.9,2.3-1.9c0-1.1-1-1.9-2.3-1.9s-2.3,0.9-2.3,1.9C104.3,19.7,105.3,20.6,106.6,20.6z M53.5,16.6
	c-0.1,0.4-5.9,17-6.1,17.5c-0.1,0.3-0.5,0.5-1.9,0.3c-1.3-0.2-1.4-1.3-1.4-1.3c-1.9,2.1-4.6,2-6.1,1.3c-1.5-0.7-2.5-2.5-2.1-5.2
	c0.4-2.7,1.9-5.2,3.7-6.5c1.8-1.4,4.2-1.6,5.7-0.9c1.4,0.7,1.5,2,1.5,2s1.3-5.6,1.6-6.6c0.2-0.9,0.9-1.2,1.5-1.4
	c0.6-0.2,2.1-0.7,3.1-0.5C53.9,15.5,53.6,16.1,53.5,16.6z M45.3,24.3c-0.5-0.5-1.3-0.6-2.1-0.3c-0.8,0.3-1.7,1.7-2.1,2.6
	c-0.4,1-0.6,2.4-0.5,3.3c0.2,0.9,0.5,1.4,1.3,1.6c0.8,0.2,1.9,0,2.4-1.4c0.5-1.4,1.2-4.2,1.2-4.2S45.8,24.9,45.3,24.3z M66.6,26
	c2.1-0.4,5.8-2,7.5-4.2c2-2.5,3-5.2,1.7-8.1c-1.3-2.9-4-4.9-7.7-4.7c-3.5,0.2-7.1,1.7-8.9,2.8c-1.7,1.1-2.4,1.8-2.2,2.5
	c0.2,0.6,0.7,1.1,1,1.4c0,0,2.9-2.2,5.8-3c2.2-0.7,4.2-0.7,5.7,0.5c1.5,1.2,1.5,3.6,1,5c-0.5,1.4-2.4,5.5-8,5.9
	c0.9-3.2,1.9-5.6,2.5-6.6c0.5-1-0.1-1.5-0.3-1.6c-0.2-0.1-0.5-0.3-1.5,0.1c-0.9,0.4-3.2,1.7-3.6,2c-0.2,0.2-0.5,0.7-0.8,1.4
	c-0.2,0.8-4.5,14.5-4.6,15.1c-0.2,0.6-0.5,1.3-0.3,1.6c0.2,0.3,0.6,0.7,1.4,0.6c0.8-0.1,3.3-0.8,3.7-0.9c0.4-0.1,0.7-0.3,0.9-1.1
	c0.2-0.7,2-8.5,2-8.5s0.7,2.6,1.1,3.8c0.4,1.2,1.5,4.3,2.4,5.7c0.9,1.4,1.6,2.9,2.8,2.7c1.2-0.2,2.6-0.9,3.3-2
	c0.7-1.1-0.2-2.1-0.5-2.5C70.4,33.3,67.9,30.4,66.6,26z M17.8,26c2.1-0.4,5.8-2,7.5-4.2c2-2.5,3-5.2,1.7-8.1c-1.3-2.9-4-4.9-7.7-4.7
	c-3.5,0.2-7.1,1.7-8.9,2.8c-1.7,1.1-2.4,1.8-2.2,2.5c0.2,0.6,0.7,1.1,1,1.4c0,0,2.9-2.2,5.8-3c2.2-0.7,4.2-0.7,5.7,0.5
	c1.5,1.2,1.5,3.6,1,5c-0.5,1.4-2.4,5.5-8,5.9c0.9-3.2,1.9-5.6,2.5-6.6c0.5-1-0.1-1.5-0.3-1.6c-0.2-0.1-0.5-0.3-1.5,0.1
	c-0.9,0.4-3.2,1.7-3.6,2c-0.2,0.2-0.5,0.7-0.8,1.4c-0.2,0.8-4.5,14.5-4.6,15.1C5.2,35.1,4.9,35.8,5,36c0.2,0.3,0.6,0.7,1.4,0.6
	c0.8-0.1,3.3-0.8,3.7-0.9c0.4-0.1,0.7-0.3,0.9-1.1c0.2-0.7,2-8.5,2-8.5s0.7,2.6,1.1,3.8c0.4,1.2,1.5,4.3,2.4,5.7
	c0.9,1.4,1.6,2.9,2.8,2.7c1.2-0.2,2.6-0.9,3.3-2c0.7-1.1-0.2-2.1-0.5-2.5C21.6,33.3,19.1,30.4,17.8,26z"/>
<g>
	<path class="st2" d="M82.8,47.9l-0.1-0.6H82l-0.1,0.6h-0.6l0.7-3.1h0.8l0.7,3.1H82.8z M82.4,45.7l-0.2,1.1h0.5L82.4,45.7z
		 M85.8,47.9l-0.7-1.3l-0.3-0.5v1.8h-0.6v-3.1h0.6l0.7,1.3l0.3,0.5v-1.8h0.6v3.1H85.8z M88.2,47.9h-1v-3.1h1c0.6,0,1,0.4,1,0.9V47
		C89.2,47.5,88.9,47.9,88.2,47.9z M88.6,45.7c0-0.2-0.1-0.4-0.4-0.4h-0.3v2h0.3c0.3,0,0.4-0.1,0.4-0.4V45.7z M93.6,49.5h-1.9v-5.1
		h1.9c0.8,0,1.3,0.4,1.3,1.2v0.4c0,0.5-0.2,0.9-0.7,1c0.5,0.1,0.7,0.5,0.7,1v0.5C94.9,49,94.5,49.5,93.6,49.5z M93.9,45.6
		c0-0.3-0.1-0.4-0.4-0.4h-0.6v1.3h0.6c0.3,0,0.4-0.1,0.4-0.4V45.6z M93.9,47.7c0-0.3-0.2-0.5-0.4-0.5h-0.6v1.3h0.6
		c0.3,0,0.4-0.2,0.4-0.4V47.7z M99.1,49.5c-0.4,0-0.6-0.3-0.6-0.8v-0.8c0-0.3-0.1-0.5-0.5-0.5h-0.6v2.1h-1.1v-5.1h1.8
		c0.8,0,1.3,0.5,1.3,1.2v0.6c0,0.4-0.2,0.7-0.7,0.9c0.5,0.1,0.7,0.5,0.7,0.8v0.8c0,0.2,0.1,0.4,0.2,0.5v0.3H99.1z M98.5,45.6
		c0-0.3-0.1-0.4-0.4-0.4h-0.6v1.4H98c0.3,0,0.4-0.1,0.4-0.5V45.6z M101,49.5v-5.1h2.9v0.9h-1.8v1.1h1.2v0.8h-1.2v1.3h1.8v1H101z
		 M109.2,49.5h-1l-0.6-3l-0.6,3h-1l-1.1-5.1h1.1l0.6,3.4l0.6-3.4h0.9l0.6,3.4l0.6-3.4h1L109.2,49.5z M112.9,49.6
		c-1,0-1.6-0.6-1.6-1.5v-0.3h1v0.2c0,0.4,0.2,0.7,0.6,0.7c0.4,0,0.6-0.2,0.6-0.6c0-0.4-0.3-0.6-0.9-0.9c-0.6-0.3-1.3-0.7-1.3-1.5
		c0-0.8,0.6-1.5,1.6-1.5c0.9,0,1.6,0.6,1.6,1.4v0.2h-1v-0.2c0-0.3-0.2-0.6-0.6-0.6c-0.3,0-0.5,0.2-0.5,0.5c0,0.4,0.3,0.6,0.9,0.9
		c0.7,0.4,1.2,0.8,1.2,1.5C114.5,48.9,113.9,49.6,112.9,49.6z M89.1,48.7h-7.9v0.7h7.9V48.7z"/>
	<g>
		<path class="st3" d="M15.8,49.5L15.7,49c-0.2,0.4-0.6,0.6-1.1,0.6c-1,0-1.5-0.7-1.5-1.5v-2.4c0-0.8,0.6-1.5,1.7-1.5
			c1.1,0,1.6,0.7,1.6,1.5v0.4h-1.1v-0.4c0-0.3-0.2-0.5-0.6-0.5c-0.4,0-0.6,0.3-0.6,0.5v2.4c0,0.3,0.2,0.5,0.6,0.5
			c0.4,0,0.6-0.3,0.6-0.5v-0.5h-0.6v-0.8h1.6v2.6H15.8z M19.5,49.6c-1.1,0-1.7-0.7-1.7-1.6v-2.2c0-0.9,0.6-1.6,1.7-1.6
			c1.1,0,1.7,0.7,1.7,1.6V48C21.2,49,20.5,49.6,19.5,49.6z M20.1,45.7c0-0.3-0.2-0.6-0.6-0.6c-0.4,0-0.6,0.2-0.6,0.6v2.4
			c0,0.3,0.2,0.6,0.6,0.6c0.4,0,0.6-0.2,0.6-0.6V45.7z M24.3,49.6c-1,0-1.7-0.6-1.7-1.4v-3.8h1.1v3.8c0,0.3,0.2,0.5,0.6,0.5
			c0.4,0,0.6-0.2,0.6-0.5v-3.8h1.1v3.8C25.9,49,25.3,49.6,24.3,49.6z M30.2,49.5c-0.4,0-0.6-0.3-0.6-0.8v-0.8c0-0.3-0.1-0.5-0.5-0.5
			h-0.6v2.1h-1.1v-5.1h1.8c0.8,0,1.3,0.5,1.3,1.2v0.6c0,0.4-0.2,0.7-0.7,0.9c0.5,0.1,0.7,0.5,0.7,0.8v0.8c0,0.2,0.1,0.4,0.2,0.5v0.3
			H30.2z M29.6,45.6c0-0.3-0.1-0.4-0.4-0.4h-0.6v1.4h0.6c0.3,0,0.4-0.1,0.4-0.5V45.6z M35.6,49.5v-3.6L35.3,47l-0.6,2.5h-0.8
			L33.3,47l-0.2-1.2v3.6h-1v-5.1h1.5l0.6,2.6l0.2,0.9l0.2-0.9l0.6-2.6h1.5v5.1H35.6z M38.1,49.5v-5.1H41v0.9h-1.8v1.1h1.2v0.8h-1.2
			v1.3H41v1H38.1z M44.3,45.3v4.2h-1.1v-4.2h-1.1v-0.9h3.3v0.9H44.3z M50,49.5h-1.9v-5.1h1.9c0.8,0,1.3,0.4,1.3,1.2v0.4
			c0,0.5-0.2,0.9-0.7,1c0.5,0.1,0.7,0.5,0.7,1v0.5C51.3,49,50.8,49.5,50,49.5z M50.2,45.6c0-0.3-0.1-0.4-0.4-0.4h-0.6v1.3h0.6
			c0.3,0,0.4-0.1,0.4-0.4V45.6z M50.2,47.7c0-0.3-0.2-0.5-0.4-0.5h-0.6v1.3h0.6c0.3,0,0.4-0.2,0.4-0.4V47.7z M54.4,49.6
			c-1,0-1.7-0.6-1.7-1.4v-3.8h1.1v3.8c0,0.3,0.2,0.5,0.6,0.5c0.4,0,0.6-0.2,0.6-0.5v-3.8H56v3.8C56,49,55.3,49.6,54.4,49.6z
			 M60.3,49.5c-0.4,0-0.6-0.3-0.6-0.8v-0.8c0-0.3-0.1-0.5-0.5-0.5h-0.6v2.1h-1.1v-5.1h1.8c0.8,0,1.3,0.5,1.3,1.2v0.6
			c0,0.4-0.2,0.7-0.7,0.9c0.5,0.1,0.7,0.5,0.7,0.8v0.8c0,0.2,0.1,0.4,0.2,0.5v0.3H60.3z M59.6,45.6c0-0.3-0.1-0.4-0.4-0.4h-0.6v1.4
			h0.6c0.3,0,0.4-0.1,0.4-0.5V45.6z M64.9,49.5L64.7,49c-0.2,0.4-0.6,0.6-1.1,0.6c-1,0-1.5-0.7-1.5-1.5v-2.4c0-0.8,0.6-1.5,1.7-1.5
			c1.1,0,1.6,0.7,1.6,1.5v0.4h-1.1v-0.4c0-0.3-0.2-0.5-0.6-0.5c-0.4,0-0.6,0.3-0.6,0.5v2.4c0,0.3,0.2,0.5,0.6,0.5
			c0.4,0,0.6-0.3,0.6-0.5v-0.5h-0.6v-0.8h1.6v2.6H64.9z M66.9,49.5v-5.1h2.9v0.9H68v1.1h1.2v0.8H68v1.3h1.8v1H66.9z M73.9,49.5
			c-0.4,0-0.6-0.3-0.6-0.8v-0.8c0-0.3-0.1-0.5-0.5-0.5h-0.6v2.1h-1.1v-5.1H73c0.8,0,1.3,0.5,1.3,1.2v0.6c0,0.4-0.2,0.7-0.7,0.9
			c0.5,0.1,0.7,0.5,0.7,0.8v0.8c0,0.2,0.1,0.4,0.2,0.5v0.3H73.9z M73.2,45.6c0-0.3-0.1-0.4-0.4-0.4h-0.6v1.4h0.6
			c0.3,0,0.4-0.1,0.4-0.5V45.6z M77.2,49.6c-1,0-1.6-0.6-1.6-1.5v-0.3h1v0.2c0,0.4,0.2,0.7,0.6,0.7c0.4,0,0.6-0.2,0.6-0.6
			c0-0.4-0.3-0.6-0.9-0.9c-0.6-0.3-1.3-0.7-1.3-1.5c0-0.8,0.6-1.5,1.6-1.5c0.9,0,1.6,0.6,1.6,1.4v0.2h-1v-0.2c0-0.3-0.2-0.6-0.6-0.6
			c-0.3,0-0.5,0.2-0.5,0.5c0,0.4,0.3,0.6,0.9,0.9c0.7,0.4,1.2,0.8,1.2,1.5C78.9,48.9,78.3,49.6,77.2,49.6z"/>
	</g>
</g>
</svg>
