<svg xmlns="http://www.w3.org/2000/svg" height="800" width="1200" viewBox="-55.95045 -43.68225 484.9039 262.0935"><path fill="#f9a70d" d="M6.244 154.969c-4.012 0-6.244 2.66-6.244 5.45v8.82c0 2.91 1.888 5.49 5.62 5.49 1.783 0 3.308-.79 4.042-2.21l.508 1.72h2.203v-9.66H6.326v2.77h2.205v1.95c0 1.02-.738 2-2.232 2-1.441 0-2.205-.98-2.205-2v-8.93c0-1.05.706-2.01 2.174-2.01 1.498 0 2.121.91 2.121 1.95v1.53h3.9v-1.42c0-2.93-2.036-5.45-6.045-5.45zm17.38 0c-3.875 0-6.194 2.4-6.194 5.74v8.25c0 3.36 2.32 5.77 6.193 5.77 3.9 0 6.184-2.41 6.184-5.77v-8.25c0-3.34-2.284-5.74-6.184-5.74zm162.95 0c-4.02 0-6.25 2.66-6.25 5.45v8.82c0 2.91 1.89 5.49 5.63 5.49 1.77 0 3.3-.79 4.04-2.21l.5 1.72h2.21v-9.66h-6.04v2.77h2.19v1.95c0 1.02-.73 2-2.23 2-1.44 0-2.2-.98-2.2-2v-8.93c0-1.05.71-2.01 2.17-2.01 1.5 0 2.12.91 2.12 1.95v1.53h3.91v-1.42c0-2.93-2.04-5.45-6.05-5.45zm49.48 0c-3.84 0-5.91 2.6-5.91 5.49 0 2.88 2.4 4.37 4.67 5.59 2.17 1.13 3.25 1.95 3.25 3.31 0 1.29-.71 2.11-2.15 2.11-1.47 0-2.26-.84-2.26-2.43v-.62h-3.7v.96c0 3.22 2.34 5.35 6.04 5.35 3.76 0 6.02-2.66 6.02-5.72 0-2.73-1.84-4.2-4.47-5.65-2.4-1.24-3.47-1.97-3.47-3.3 0-1.14.77-1.87 1.95-1.87 1.41 0 2.12.99 2.12 2.27v.59h3.64v-.77c0-2.99-2.28-5.31-5.73-5.31zm130.99 0c-3.84 0-5.9 2.6-5.9 5.48 0 2.88 2.4 4.38 4.66 5.6 2.17 1.13 3.25 1.95 3.25 3.31 0 1.29-.7 2.11-2.14 2.11-1.48 0-2.27-.84-2.27-2.43v-.62h-3.7v.96c0 3.22 2.34 5.35 6.05 5.35 3.76 0 6.01-2.66 6.01-5.72 0-2.74-1.83-4.2-4.46-5.65-2.4-1.24-3.47-1.97-3.47-3.3 0-1.14.76-1.87 1.95-1.87 1.41 0 2.12.99 2.12 2.26v.6h3.64v-.77c0-2.99-2.29-5.31-5.74-5.31zm-331.92.45v14.02c0 3.13 2.6 5.29 6.157 5.29 3.593 0 6.047-2.16 6.047-5.29v-14.02H43.4v13.96c0 1.27-.76 1.98-2.119 1.98-1.327 0-2.06-.71-2.06-1.98v-13.96zm17.745 0v18.82h4.037v-7.68h2.174c1.166 0 1.674.84 1.674 1.83v3.08c0 1.75.62 2.89 2.258 2.89h2.402v-1.19c-.508-.46-.789-1.05-.789-1.92v-3.08c0-1.3-.82-2.71-2.514-3.11 1.693-.45 2.428-1.61 2.428-3.14v-2.03c0-2.71-1.832-4.47-4.889-4.47zm17.125 0v18.82h3.613v-13.34l.907 4.27 2.15 9.07h3.021l2.264-9.07.93-4.27v13.34h3.818v-18.82h-5.4l-2.23 9.58-.71 3.31-.68-3.31-2.257-9.58zm22.238 0v18.82h10.483v-3.53h-6.444v-4.72h4.444v-3.05h-4.444v-4.12h6.444v-3.4zm14.413 0v3.45h4.07v15.37h4.04v-15.37h4.04v-3.45zm22.08 0v18.82h6.98c3.05 0 4.75-1.61 4.75-4.32v-1.8c0-1.76-.73-3.09-2.74-3.51 1.92-.34 2.62-1.73 2.62-3.51v-1.36c0-2.68-1.66-4.32-4.71-4.32zm16.93 0v14.02c0 3.13 2.6 5.29 6.16 5.29 3.59 0 6.05-2.16 6.05-5.29v-14.02h-3.93v13.96c0 1.27-.76 1.98-2.12 1.98-1.33 0-2.07-.71-2.07-1.98v-13.96zm17.75 0v18.82h4.04v-7.68h2.17c1.16 0 1.67.84 1.67 1.83v3.08c0 1.75.62 2.89 2.26 2.89h2.4v-1.19c-.51-.46-.79-1.05-.79-1.92v-3.08c0-1.3-.82-2.71-2.52-3.11 1.7-.45 2.44-1.61 2.44-3.14v-2.03c0-2.71-1.84-4.47-4.89-4.47zm34.56 0v18.82h10.48v-3.53h-6.45v-4.72h4.45v-3.05h-4.45v-4.12h6.45v-3.4zm15.46 0v18.82h4.03v-7.68h2.18c1.16 0 1.67.84 1.67 1.83v3.08c0 1.75.62 2.89 2.26 2.89h2.4v-1.19c-.5-.46-.79-1.05-.79-1.92v-3.08c0-1.3-.82-2.71-2.51-3.11 1.69-.45 2.42-1.61 2.42-3.14v-2.03c0-2.71-1.83-4.47-4.89-4.47zm75.85 0v18.82h6.98c3.06 0 4.75-1.61 4.75-4.32v-1.8c0-1.76-.73-3.09-2.74-3.51 1.92-.34 2.63-1.73 2.63-3.51v-1.36c0-2.68-1.67-4.32-4.72-4.32zm16.96 0v18.82h4.04v-7.68h2.18c1.15 0 1.66.84 1.66 1.83v3.08c0 1.75.63 2.89 2.27 2.89h2.4v-1.2c-.51-.45-.8-1.04-.8-1.91v-3.08c0-1.3-.82-2.71-2.51-3.11 1.69-.45 2.43-1.61 2.43-3.14v-2.03c0-2.71-1.84-4.47-4.89-4.47zm17.13 0v18.82h10.48v-3.53h-6.44v-4.72h4.44v-3.05h-4.44v-4.12h6.44v-3.4zm14.26 0l3.94 18.82h3.58l2.32-10.99 2.24 10.99h3.61l3.95-18.82h-3.72l-2.1 12.32-2.26-12.32h-3.13l-2.38 12.32-2.03-12.32zm-84.19 1.57l-2.69 11.49h2.32l.47-2.27h2.39l.49 2.27h2.46l-2.68-11.49zm8.06 0v11.49h2.27v-6.48l.98 1.87 2.54 4.61h1.9v-11.49h-2.23v6.6l-.93-1.89-2.47-4.71zm11.09 0v11.49h3.83c2.39 0 3.67-1.37 3.67-3.31v-4.73c0-1.91-1.28-3.45-3.67-3.45zm-248.96 1.37c1.355 0 2.117.85 2.117 2.12v8.7c0 1.28-.762 2.12-2.117 2.12-1.33 0-2.092-.84-2.092-2.12v-8.7c0-1.27.762-2.12 2.092-2.12zm33.283.23h2.29c1.05 0 1.447.59 1.447 1.53v1.97c0 1.13-.568 1.67-1.614 1.67h-2.123zm75.89 0h2.26c1.05 0 1.44.59 1.44 1.53v1.63c0 1.1-.57 1.64-1.61 1.64h-2.09zm34.65 0h2.29c1.04 0 1.43.59 1.43 1.53v1.97c0 1.13-.56 1.67-1.6 1.67h-2.12zm50.01 0h2.29c1.05 0 1.45.59 1.45 1.53v1.97c0 1.13-.57 1.67-1.62 1.67h-2.12zm75.89 0h2.27c1.03 0 1.43.59 1.43 1.53v1.63c0 1.1-.56 1.64-1.61 1.64h-2.09zm16.93 0h2.29c1.04 0 1.44.59 1.44 1.53v1.97c0 1.13-.56 1.67-1.61 1.67h-2.12zm-35.22.45h1.18c.94 0 1.37.54 1.37 1.45v4.49c0 .92-.43 1.45-1.37 1.45h-1.18zm-20.27 1.14l.81 4.2h-1.69zm-121.99 6.01h2.18c1.04 0 1.61.56 1.61 1.67v1.72c0 .93-.4 1.5-1.44 1.5h-2.35zm160.55 0h2.18c1.05 0 1.61.56 1.61 1.67v1.72c0 .93-.4 1.5-1.44 1.5h-2.35zm-42.7 5.27v2.61h28.93v-2.61z"/><path fill="#ed1c24" d="M50.687 43.735a31.206 31.206 0 00-2.218.037c-11.182.578-23.062 5.482-28.674 8.922-5.605 3.435-7.666 5.918-7.139 7.926.525 2.006 2.414 3.654 3.338 4.36 0 0 9.446-7.095 18.672-9.843 7.145-2.128 13.562-2.147 18.307 1.723 4.747 3.87 4.89 11.56 3.12 16.045-1.77 4.488-7.874 17.648-25.96 19.19 2.998-10.45 6.305-18.04 8.035-21.245 1.722-3.196-.339-4.822-.959-5.3-.625-.475-1.777-.953-4.797.38-3.019 1.338-10.372 5.39-11.55 6.454-.672.602-1.776 2.098-2.54 4.628-.766 2.529-14.526 46.857-15.05 48.757-.526 1.92-1.488 4.16-.96 5.07.528.91 2.01 2.25 4.46 1.86 2.438-.38 10.688-2.53 11.933-3.01 1.245-.48 2.3-1.04 2.807-3.44.5-2.38 6.486-27.49 6.486-27.49s2.206 8.53 3.502 12.26c1.297 3.72 4.696 13.9 7.625 18.38 2.92 4.5 5.268 9.23 9.103 8.65 3.84-.57 8.341-2.96 10.735-6.5 2.401-3.53-.574-6.63-1.772-8.11-1.197-1.48-9.257-10.72-13.707-24.94 6.952-1.19 18.641-6.401 24.397-13.608 6.33-7.925 9.586-16.62 5.508-26.025-3.82-8.822-11.807-14.916-22.702-15.131zm158.03 0c-.73-.014-1.47-.002-2.22.037-11.18.578-23.06 5.482-28.67 8.922-5.61 3.435-7.67 5.918-7.14 7.926.53 2.006 2.41 3.654 3.33 4.36 0 0 9.45-7.095 18.67-9.843 7.16-2.128 13.57-2.147 18.31 1.723 4.75 3.87 4.89 11.56 3.12 16.045-1.78 4.488-7.87 17.648-25.96 19.19 3-10.45 6.3-18.04 8.03-21.245 1.73-3.196-.33-4.822-.95-5.3-.63-.475-1.78-.953-4.8.38-3.02 1.338-10.37 5.39-11.55 6.454-.67.602-1.77 2.098-2.54 4.628-.76 2.529-14.52 46.857-15.05 48.757-.53 1.92-1.49 4.16-.96 5.07.53.91 2.01 2.25 4.46 1.86 2.44-.38 10.69-2.53 11.93-3.01 1.25-.48 2.31-1.04 2.81-3.44.5-2.38 6.48-27.49 6.48-27.49s2.22 8.53 3.51 12.26c1.29 3.72 4.7 13.9 7.62 18.38 2.93 4.5 5.28 9.23 9.11 8.65 3.83-.57 8.34-2.96 10.74-6.5 2.39-3.53-.58-6.63-1.78-8.11-1.2-1.48-9.25-10.72-13.71-24.94 6.96-1.19 18.65-6.401 24.4-13.608 6.33-7.925 9.59-16.62 5.51-26.025-3.82-8.822-11.8-14.916-22.7-15.131zm76.38 19.85c-2.63.132-5.56 1.109-7.1 1.656-1.43.504-4.02 1.499-4.76 4.266-3.26 13.1-12.68 50.882-13.72 53.592-.62 1.62 1.31 2.2 2.81 2.29 2.39.15 6.79.46 10.15-4.23 1.84 1.87 4.54 5.15 12.33 5.59 6.65.39 16.3-3.17 20.78-16.86 4.23-12.965-.64-22.8-9.08-25.726-8.43-2.933-14.7 3.56-15.34 4.424 2.27-5.57 6.41-16.457 8.39-21.731.29-1.217.23-2.507-1.98-3.074-.75-.191-1.6-.241-2.48-.197zm-132.97.002c-2.72.13-5.83 1.109-7.37 1.654-1.74.617-3.98 1.608-4.75 4.379-.95 3.434-5.14 21.45-5.14 21.45s-.38-4.171-4.98-6.368c-4.6-2.195-12.49-1.53-18.31 2.836-5.81 4.36-10.64 12.22-11.98 21.08-1.34 8.85 1.91 14.71 6.83 16.84 4.93 2.13 13.52 2.42 19.72-4.33 0 0 .06 3.53 4.38 4.26 4.31.74 5.58.04 6.01-.98.62-1.5 19.33-54.893 19.74-56.325.42-1.432 1.38-3.535-1.63-4.3-.75-.19-1.61-.24-2.52-.196zm173.39 4.71c-4.13 0-7.47 2.814-7.47 6.286 0 3.47 3.34 6.283 7.47 6.283 4.12 0 7.45-2.812 7.45-6.283 0-3.472-3.33-6.285-7.45-6.285zm-77.82 15.083c-4.3-.128-8.58 1.009-11.06 2.12-4.3 1.923-11.33 5.584-17 16.809-2.49 4.93-2.98 9.14-2.68 12.41.34 3.62 2.37 8.28 6.31 10.28 2.32 1.18 5.9 2.06 10.56 1.63 11.18-1.02 18.15-5.71 23.58-14.7 5.63-9.32 5.04-20.543-.44-25.348-2.56-2.236-5.93-3.102-9.27-3.201zm-158.91.136c-.545.017-1.055.062-1.514.129-3.668.542-9.38 1.614-17.156 9.219 0 0-6.858 5.585-9.836 15.945-2.983 10.36 2.733 14.58 4.856 15.79 2.126 1.21 9.18 3.86 18.963.76 9.786-3.09 10.488-7.8 11.033-10.15.54-2.35-.2-4.5-2.393-2.47-2.198 2.04-6.902 4.52-11.252 4.48-4.342-.06-7.73-2.16-7.627-7.56 10.01-2.14 15.238-3.36 19.764-6.05 4.52-2.68 6.926-8.204 5.616-13.932-1.136-5.01-6.64-6.28-10.454-6.161zm273.97 1.202c-4.54.239-9.49 3.31-13.97 8.654.51-2.198.87-3.631 1.12-4.965.22-1.17.3-3.523-3.16-2.807-2.75.574-4.87 1.087-7.45 1.705-2.03.494-3.47 1.09-4.2 3.864l-8.68 31.74s-.68 2.2 1.69 2.2h7.37c5.27 0 7.11-5.71 7.8-8.26.7-2.57 3.36-12.19 4-14.73.64-2.55 4.48-3.887 6.68-3.56 2.2.31 4.34 1.52 3.58 4.97-.77 3.43-2.56 11.58-2.78 13.17-.23 1.6-.16 4.39 2.14 7.07 2.3 2.67 5.3 3.41 8.72 3.31 3.42-.1 4.33-1.58 3.77-2.64-1.08-2.07-1.66-4.24-.99-7.13.67-2.9 3.13-12.83 3.8-16.43.67-3.604 2.24-11.113-3.58-14.68-1.81-1.114-3.79-1.59-5.86-1.481zm-34.91 2.039a5.79 5.79 0 00-1.13.109c-2.69.505-5.88 1.109-8.46 1.748-2 .494-3.31 1.089-4.03 3.857l-6.66 24.378c-1.21 4.9 2.44 8.25 4.7 8.25h5.29c2.09 0 2.86-1.06 3.17-2.21 1.32-4.89 9.1-33.222 9.1-33.222.2-1.017.3-2.886-1.98-2.91zm-241.7 2.877c1.785.057 2.418 1.335 2.492 2.375.082 1.18-.64 6.31-4.592 8.55-4.943 2.81-9.322 2.89-9.322 2.89s.89-3.82 3.543-7.767c2.385-3.535 4.65-5.63 7.041-5.994.303-.046.582-.063.838-.054zm39.782 1.912c1.54.01 2.91.555 3.9 1.564 1.72 1.75.86 5.09.86 5.09s-2.3 9.109-3.96 13.699c-1.66 4.58-5.37 5.12-7.92 4.48-2.57-.63-3.74-2.44-4.27-5.27-.51-2.83.24-7.46 1.55-10.55 1.3-3.09 4.24-7.386 6.93-8.441 1-.392 1.99-.58 2.91-.572zm118.31.009c1.22-.102 2.38.293 3.31 1.457 2.97 3.727 1.11 9.887.48 12.277-.62 2.39-3.97 10.84-9.72 10.79-5.67-.04-6.33-5.44-5.45-9.84.9-4.47 2.61-7.28 4.24-9.691 1.45-2.137 4.44-4.767 7.14-4.993zm43.42.239c1.31.013 2.62.569 3.74 1.939 3.61 4.415 2.58 12.566-.51 18.346-3.11 5.78-6.66 6.82-10.01 5.78-3.36-1.04-4.34-5.17-3.94-8.07.41-2.88 2.64-10.22 3.89-13.071 1.03-2.353 3.95-4.953 6.83-4.924z"/><path fill="#a61217" d="M315.73 62.251c-17.122-14.448-38.752-28.086-63.639-39.392-73.027-33.176-145.137-29.343-160.425 5.679-6.648 15.243-1.458 34.155 12.578 53.3a34.656 34.656 0 011.889-1.54c2.955-2.212 6.425-3.85 10.07-4.827-7.522-13.578-9.455-26.606-4.043-37.45 15.198-30.437 77.011-35.268 140.95-7.363 22.685 9.902 42.981 21.696 59.039 34.93a16.233 16.233 0 013.571-3.337"/></svg>