<svg xmlns="http://www.w3.org/2000/svg" height="800" width="1200" viewBox="-37.5 -10.234 325 61.404"><defs><linearGradient gradientUnits="userSpaceOnUse" y2="64.98" y1="64.98" x2="99.51" x1="56.72" id="a"><stop offset=".3" stop-color="#e74a21"/><stop offset=".7" stop-color="#ec9a1e"/></linearGradient></defs><path fill="url(#a)" d="M86.27 60.09l-.12.31c2 .88 6.49 4.37 6.49 11.4 0 6.62-5.58 13.29-14.35 13.29-10.91 0-14.67-6.38-14.67-12.24 0-7.51 5.25-12.51 5.25-19.35a10.69 10.69 0 00-8.42-10.32l-.18.31a8.86 8.86 0 012.69 6.41c0 7.39-6.23 12.64-6.23 21.12 0 7.81 5.46 15.77 21.27 15.77 14.09 0 21.52-6.9 21.52-14.24-.01-6.3-4.52-11.63-13.25-12.46z" transform="translate(-48.0112 -32.5152) scale(.84631)"/><path fill="#0460a9" d="M77.3866 39.8697L61.5352 19.4313v18.4241l3.2329.7702v.8463h-7.3714v-.8463l2.6405-.7702V17.781a5.6364 5.6364 0 00-2.2596-1.2864c-.3216-.0677-.7532-.1439-.7532-.1439v-.8463h6.2542l13.541 17.6032V17.1378l-3.233-.7786v-.8463h7.3714v.8463l-2.6405.7786v18.2718c0 1.6926.1185 4.1554.1439 4.4685zm33.1415-13.0163c0 8.4631-5.9242 13.3717-12.3985 13.3717-6.4742 0-12.4238-4.9763-12.4238-12.7116 0-7.7352 5.9242-12.7623 12.3646-12.7623a12.06 12.06 0 0112.4577 12.1107zm-4.1215 1.2695c0-6.2204-3.7238-12.2546-8.7847-12.2546-5.3826 0-7.8115 5.2048-7.8115 10.7735 0 5.5688 3.0721 12.4746 8.8524 12.4746 5.4333 0 7.7438-5.501 7.7438-10.9935zm9.2417-11.002l-2.539-.7787v-.8463h9.7241v.8463l-3.0467.7787 6.7113 18.2972 6.7112-18.2972-3.0467-.7787v-.8463h7.1936v.8463l-2.539.7787-8.4038 22.808h-2.1496zm57.4644 10.1134h-1.5403V16.7569c5.0779 0 8.0992 1.168 8.0992 5.3149-.0254 3.0805-2.6659 5.1625-6.5589 5.1625zm43.5088 11.3913l3.3852-.7702v-20.726l-3.3852-.7787v-.8463h10.5535v.8463l-3.3852.7786v20.7261l3.3852.7702v.8463h-10.5535zm17.0193-5.738h.6686l2.2427 5.1625a10.0457 10.0457 0 004.2908 1.0663c2.9113 0 5.5687-1.6926 5.5687-4.7224 0-2.302-1.4895-3.673-3.9015-4.934l-2.3866-1.2356c-2.852-1.481-5.704-3.5799-5.704-6.9566 0-3.673 2.5388-6.5082 7.9721-6.5082a18.7373 18.7373 0 015.6195.9225l.567 5.5518h-.7193l-2.0734-4.4516a7.2021 7.2021 0 00-3.5122-.914c-2.7505 0-4.6209 1.6926-4.6209 4.037 0 2.1241 1.4133 3.4613 3.8338 4.7139l2.8267 1.4725C248.1719 28.089 250 29.9424 250 33.37c0 4.2316-3.9692 6.8636-8.9032 6.8636a21.2424 21.2424 0 01-6.8467-1.024zm-97.8334 5.738l2.7166-.7702 8.387-22.368 2.8012-.7193L158.37 37.847l2.7166.7786v.8463h-10.2742v-.8463l3.4784-.7786-2.4543-6.635h-9.2248l-2.4374 6.635 3.4784.7701v.8463h-7.8453zm7.4475-9.1825h7.9807l-3.9607-10.6973zm34.6987-1.6926c.8463-.2116 5.5941-1.4218 5.5941-5.9242 0-3.6137-2.7674-6.415-9.5887-6.415-4.2315 0-8.463.0931-8.9963.11v.8463l2.7844.7786V37.847l-2.7844.7786v.8463h9.851v-.8463l-3.2328-.7786v-9.3602h2.7843l7.1175 11.002h6.305v-.8463l-3.1906-.8463zm20.8023-11.002v21.107l-3.3852.77v.8464h10.5534v-.8463l-3.3852-.7702V16.757h5.6957l1.8788 4.0454h.7278l-.5416-5.2725h-19.3044l-.5416 5.2725h.7278l1.862-4.003zM18.1619 31.982L21.547 0h-7.0244l3.3852 31.982z"/></svg>