<svg xmlns="http://www.w3.org/2000/svg" height="800" width="1200" viewBox="-6.75 -4.753075 58.5 28.51845"><path d="M45 19.0122H0V0h45z" fill="#fff"/><path d="M.7906.9h43.4199v8.2634H.7905z" fill="#23346a"/><path d="M.7906 9.953h43.4199v8.2634H.7905z" fill="#009340"/><path d="M8.6774 7.0347H7.209c-.7542 0-1.5247-.126-1.5247-1.0608v-.3587h.642v.3481c0 .3126.1295.4936.7907.4936h1.641c.7818 0 .9208-.1704.9208-.6502 0-.4138-.1076-.5426-.7803-.5426h-1.004c-1.6087 0-2.2162-.1037-2.2162-1.2065 0-.973.6206-1.163 1.6927-1.163h1.1387c1.2496 0 1.7142.299 1.7142 1.1034v.2082h-.641l-.0014-.0716c-.0095-.5486-.0117-.6625-1.39-.6625h-.5612c-1.0443 0-1.3092.061-1.3092.6233 0 .3976.0773.5482.8989.5482h1.5652c1.0623 0 1.5357.3186 1.5357 1.0337v.2536c0 1.1039-1.0287 1.1039-1.6436 1.1039m6.9975-.0433h-4.0054V2.9377h3.9838v.5775h-3.309v1.101h3.1796v.5779h-3.1796v1.2196h3.3306v.5048zm4.0069 0h-.7338l-.0208-.0377-2.1647-3.9077-.06-.1083h.761l.0208.0377 1.8306 3.3172 1.8309-3.3172.0208-.0377h.7606l-.0596.1083-2.165 3.9077zm7.4037 0H23.08v-4.054h3.9835v.5776H23.755v1.101h3.1792v.5776H23.755v1.2199h3.3305v.5048zm5.7971 0h-.6428v-.931c0-.5273-.2074-.6127-.7045-.6127H29.028v1.5437h-.6748v-4.054h3.1982c1.166 0 1.3794.3975 1.3794 1.1797v.3185c0 .4819-.2367.6756-.495.7574.3066.1267.4467.3588.4467.7267v.9988zM29.028 4.87h2.4642c.636 0 .7637-.189.7637-.4935v-.3563c0-.3433-.0882-.5048-.8932-.5048H29.028zm10.2946 2.1214h-.8901l-.0212-.0201-3.4558-3.315v3.3351h-.6745V2.9376h.8901l.0212.02 3.4554 3.3151V2.9376h.6749v3.9811zM11.253 16.0448h-.6748v-3.4762H8.6027v-.5776h4.6263v.5776h-1.976v3.4032zm7.68 0h-.6421v-.931c0-.5277-.2082-.613-.7045-.613h-2.5072v1.544h-.6749v-4.0537h3.1983c1.166 0 1.379.3972 1.379 1.1793v.3186c0 .4818-.2364.6759-.4953.7577.3066.1263.4466.3584.4466.7264v.9987zm-3.8538-2.1212h2.4641c.6357 0 .7638-.1891.7638-.4939v-.3567c0-.3425-.0886-.5044-.8936-.5044h-2.3343zm9.273 2.1212H20.347V11.991h3.9835v.5776h-3.309v1.101h3.1795v.5778h-3.1795v1.2196h3.3307v.5048zm6.3098.0002h-.89l-.0215-.0205-3.4555-3.3147v3.3352h-.6745v-4.0542h.8901l.0212.0205 3.4554 3.315V11.991h.6749v3.9814zm3.8311-.0002h-.6748v-3.4762h-1.976v-.5778h4.6264v.5778H34.493v3.4032z" fill="#fff"/></svg>