<svg xmlns="http://www.w3.org/2000/svg" height="800" width="1200" viewBox="-7.812426 -2.3130225 67.707692 13.878135"><defs><clipPath clipPathUnits="userSpaceOnUse" id="a"><path d="M0 792h540V0H0z"/></clipPath><clipPath clipPathUnits="userSpaceOnUse" id="b"><path d="M324.864 0H540v77.862H324.864z"/></clipPath></defs><g clip-path="url(#a)" transform="matrix(.35278 0 0 -.35278 -124.92411 18.27297)"><g clip-path="url(#b)"><path d="M394.5785 35.866c.883 0 1.398.294 1.398 1.03 0 .662-.442 1.03-1.472 1.03h-2.353v-2.06zm-.588 3.825c.956 0 1.471.368 1.471 1.03v.073c0 .589-.441.957-1.324.957h-1.986v-2.06zm-3.825 3.899h4.266c1.103 0 1.913-.295 2.427-.809.442-.442.662-.957.662-1.619v-.073c0-1.104-.588-1.692-1.25-2.06 1.103-.441 1.765-1.103 1.765-2.354v-.073c0-1.766-1.397-2.649-3.457-2.649h-4.413v9.637m9.4885-.0004h2.06v-7.65h4.634v-1.986h-6.694zm13.6818-5.5903l-1.25 3.163-1.251-3.163zm-2.133 5.664h1.839l3.972-9.71h-2.133l-.809 2.207h-3.972l-.81-2.207h-2.059zm6.1051-4.8549c0 2.722 1.986 5.002 4.781 5.002 1.766 0 2.795-.662 3.678-1.545l-1.324-1.545c-.662.662-1.397 1.104-2.354 1.104-1.545 0-2.648-1.324-2.648-3.016s1.03-3.016 2.648-3.016c1.03 0 1.692.441 2.428 1.103l1.324-1.397c-.957-1.03-2.06-1.692-3.825-1.692-2.722 0-4.708 2.207-4.708 5.002m9.8567 4.7812h2.06v-4.193l3.751 4.193h2.501l-3.825-4.046 3.972-5.59h-2.427l-2.869 4.119-1.103-1.177v-2.942h-2.06zm15.6678-2.5011c0 .515-.368.883-.809.883-.515 0-.809-.368-.809-.957 0-.367.147-.661.441-1.103.809.294 1.177.662 1.177 1.177m-.074-4.708l-1.691 1.766c-.515-.294-.736-.736-.736-1.177 0-.662.441-1.104 1.177-1.104.441 0 .809.221 1.25.515m1.03-1.103c-.735-.588-1.544-.956-2.501-.956-1.618 0-2.868.956-2.868 2.574 0 1.104.588 1.913 1.618 2.428-.368.588-.589 1.177-.589 1.765v.074c0 1.177.957 2.354 2.575 2.354 1.471 0 2.427-1.03 2.427-2.281 0-1.25-.735-1.912-1.765-2.354l1.103-1.176c.294.441.589.956.81 1.544l1.397-.809c-.294-.662-.662-1.324-1.103-1.912l1.25-1.251-1.397-1.03-.957 1.03m4.2665 8.3121h2.28l2.428-6.767 2.427 6.767h2.133l-3.677-9.71h-1.839zm10.5189 0h6.988v-1.839h-5.002v-1.986h4.413v-1.839h-4.413v-2.06h5.076v-1.912h-7.062zm14.1231-5.5903l-1.177 3.163-1.25-3.163zm-2.133 5.664h1.912l3.973-9.71h-2.134l-.882 2.207h-3.899l-.883-2.207h-2.059zm8.0911-1.9862h-2.869v1.913h7.724v-1.913h-2.869v-7.724h-1.986zm5.3698-2.8687c0 2.722 1.986 5.002 4.781 5.002 1.765 0 2.795-.662 3.678-1.545l-1.324-1.545c-.662.662-1.398 1.104-2.354 1.104-1.545 0-2.648-1.324-2.648-3.016s1.103-3.016 2.648-3.016c1.104 0 1.692.441 2.428 1.103l1.323-1.397c-.956-1.03-1.986-1.692-3.824-1.692-2.722 0-4.708 2.207-4.708 5.002m9.9302 4.7812h1.986v-3.752h3.752v3.752h2.059v-9.636h-2.059v3.898h-3.752v-3.898h-1.986z"/><path d="M354.1156 50.2924c0 .792.634 1.505 1.505 1.505h25.819c.871 0 1.505-.713 1.505-1.505v-22.968c0-.871-.634-1.505-1.505-1.505h-25.819c-.871 0-1.505.634-1.505 1.505v22.968" fill="#005596"/><path d="M362.4366 42.5831v1.913h6.297c.459 0 .831-.428.831-.956 0-.529-.372-.957-.831-.957zm0-1.933h6.297c.459 0 .831-.428.831-.957 0-.528-.372-.956-.831-.956h-4.955l4.831-8.475h5.544l6.494 9.504h-4.039l-4.911-7.049c-1.867 3.448-2.041 3.769-2.057 3.799h1.503c1.783 0 2.821 1.249 2.919 2.776.059.881-.291 1.665-.902 2.174.611.509.961 1.293.902 2.175-.098 1.527-1.136 2.775-2.919 2.775v.003h-12.672v-9.9h5.148l-1.188 2.218v1.901" fill="#fff"/><path d="M384.725 26.997v.361h.373c.151 0 .341-.026.341-.169 0-.223-.302-.192-.478-.192zm.467-.195c.25.006.444.107.444.382 0 .301-.246.37-.499.37h-.608v-1.397h.196v.645h.236l.419-.645h.235zm-.185-1.034c-.585 0-1.086.478-1.086 1.079 0 .603.501 1.08 1.086 1.08.586 0 1.086-.477 1.086-1.08 0-.601-.5-1.079-1.086-1.079m0-.197c.718 0 1.282.567 1.282 1.276 0 .711-.564 1.276-1.282 1.276-.716 0-1.282-.565-1.282-1.276 0-.709.566-1.276 1.282-1.276" fill="#005596"/></g></g></svg>